<svg width="1870" height="191" viewBox="0 0 1870 191" fill="none" xmlns="http://www.w3.org/2000/svg">
<path d="M66 47V0H1803V47C1803 77.3757 1778.38 102 1748 102H121C90.6243 102 66 77.3757 66 47Z" fill="#0047FF"/>
<path d="M0 35V190.378H1870V35C1870 15.67 1854.33 0 1835 0H1565.64C1554.26 0 1543.6 5.52529 1537.04 14.8161L1491.93 78.7176C1481.63 93.3174 1464.87 102 1447 102H438.197C419.939 102 402.871 92.9397 392.641 77.817L350.41 15.3892C343.9 5.76567 333.039 0 321.42 0H35C15.67 0 0 15.67 0 35Z" fill="#00214A"/>
</svg>
