<svg width="48" height="50" viewBox="0 0 48 50" fill="none" xmlns="http://www.w3.org/2000/svg">
<path d="M18.8799 4.70386C18.8799 3.22067 20.0822 2.01831 21.5654 2.01831H30.5173C32.0004 2.01831 33.2028 3.22067 33.2028 4.70386V19.0268C33.2028 20.51 32.0004 21.7123 30.5173 21.7123H18.8799V4.70386Z" fill="#2BC899" stroke="#2BC899" stroke-width="2.68555"/>
<path opacity="0.3" d="M31.4126 5.59912H44.01C45.4733 5.59912 46.3186 7.25915 45.4579 8.44253L41.8961 13.34C40.983 14.5956 40.983 16.2966 41.8961 17.5522L45.4579 22.4497C46.3186 23.6331 45.4733 25.2931 44.01 25.2931H33.203C32.2142 25.2931 31.4126 24.4916 31.4126 23.5028V5.59912Z" fill="#2BC899" stroke="#2BC899" stroke-width="2.68555"/>
<path d="M18.8853 38.2815L18.8853 5.46899" stroke="#2BC899" stroke-width="2.34375" stroke-linecap="round" stroke-linejoin="round"/>
<path opacity="0.8" d="M36.9141 38.2812C36.9141 41.2424 34.9921 44.0118 31.6977 46.0708C28.4116 48.1246 23.8354 49.4141 18.75 49.4141C13.6646 49.4141 9.0884 48.1246 5.80229 46.0708C2.50793 44.0118 0.585938 41.2424 0.585938 38.2812C0.585938 35.3201 2.50793 32.5507 5.80229 30.4917C9.0884 28.4379 13.6646 27.1484 18.75 27.1484C23.8354 27.1484 28.4116 28.4379 31.6977 30.4917C34.9921 32.5507 36.9141 35.3201 36.9141 38.2812Z" stroke="#2BC899" stroke-width="1.17188"/>
<path d="M28.5156 38.2812C28.5156 39.689 27.6264 41.1256 25.8503 42.2673C24.0867 43.4011 21.5796 44.1406 18.75 44.1406C15.9204 44.1406 13.4133 43.4011 11.6497 42.2673C9.87361 41.1256 8.98438 39.689 8.98438 38.2812C8.98438 36.8735 9.87361 35.4369 11.6497 34.2952C13.4133 33.1614 15.9204 32.4219 18.75 32.4219C21.5796 32.4219 24.0867 33.1614 25.8503 34.2952C27.6264 35.4369 28.5156 36.8735 28.5156 38.2812Z" stroke="#2BC899" stroke-width="2.34375"/>
</svg>
