<svg width="359" height="93" viewBox="0 0 359 93" fill="none" xmlns="http://www.w3.org/2000/svg">
<rect width="359" height="93" fill="#0047FF"/>
<path d="M0 23C0 31.8366 7.16344 39 16 39H195.147C203.986 39 212.109 43.8581 216.291 51.645L233.973 84.57C236.761 89.7612 242.176 93 248.069 93H343C351.837 93 359 85.8366 359 77V0.5H0V23Z" fill="white"/>
<path d="M338.571 58C338.571 68.8154 329.943 77.5714 319.312 77.5714C308.682 77.5714 300.054 68.8154 300.054 58C300.054 47.1846 308.682 38.4286 319.312 38.4286C329.943 38.4286 338.571 47.1846 338.571 58Z" stroke="#9FA0AB" stroke-width="0.857143"/>
<path d="M319.57 48.8569V57.9998M319.57 67.1426V57.9998M319.57 57.9998H310.312M319.57 57.9998H328.313" stroke="#00214A"/>
<path d="M287.946 58C287.946 68.8154 279.318 77.5714 268.688 77.5714C258.057 77.5714 249.429 68.8154 249.429 58C249.429 47.1846 258.057 38.4286 268.688 38.4286C279.318 38.4286 287.946 47.1846 287.946 58Z" stroke="#9FA0AB" stroke-width="0.857143"/>
<path d="M268.945 48.8569V57.9998M268.945 67.1426V57.9998M268.945 57.9998H259.688M268.945 57.9998H277.688" stroke="#00214A"/>
</svg>
