<svg width="120" height="40" viewBox="0 0 120 40" fill="none" xmlns="http://www.w3.org/2000/svg">
<path d="M62.8935 13.1846H65.4016V26H62.8935V20.6908H58.1335V26H55.607V13.1846H58.1335V18.2742H62.8935V13.1846ZM74.6294 16.8462H76.9911V26H74.6294V24.9198C73.9215 25.8108 72.9268 26.2563 71.6452 26.2563C70.4247 26.2563 69.3751 25.7925 68.4963 24.8649C67.6298 23.9251 67.1965 22.7778 67.1965 21.4231C67.1965 20.0683 67.6298 18.9271 68.4963 17.9995C69.3751 17.0597 70.4247 16.5898 71.6452 16.5898C72.9268 16.5898 73.9215 17.0353 74.6294 17.9263V16.8462ZM70.2722 23.2905C70.7482 23.7665 71.3523 24.0045 72.0846 24.0045C72.8169 24.0045 73.4211 23.7665 73.8971 23.2905C74.3853 22.8023 74.6294 22.1798 74.6294 21.4231C74.6294 20.6664 74.3853 20.05 73.8971 19.574C73.4211 19.0858 72.8169 18.8417 72.0846 18.8417C71.3523 18.8417 70.7482 19.0858 70.2722 19.574C69.7962 20.05 69.5582 20.6664 69.5582 21.4231C69.5582 22.1798 69.7962 22.8023 70.2722 23.2905ZM87.3711 23.7848H88.5794V28.4532H86.2727V26H80.5973V28.4532H78.2905V23.7848H79.4073C79.9321 23.0036 80.1945 21.9235 80.1945 20.5443V16.8462H87.3711V23.7848ZM81.9337 23.7848H85.0644V18.9698H82.5013V20.5443C82.5013 21.8381 82.3121 22.9182 81.9337 23.7848ZM95.2419 21.3315C96.1694 21.7831 96.6332 22.5093 96.6332 23.5102C96.6332 24.2913 96.3098 24.9443 95.6629 25.4691C95.0161 25.9939 94.1068 26.2563 92.9351 26.2563C91.0799 26.2563 89.8167 25.524 89.1454 24.0594L91.0677 22.9243C91.3606 23.7543 91.9892 24.1692 92.9534 24.1692C93.3928 24.1692 93.7284 24.0838 93.9603 23.9129C94.2044 23.7421 94.3265 23.5102 94.3265 23.2172C94.3265 22.6558 93.9664 22.3751 93.2463 22.3751H91.9465V20.3612H92.9351C93.643 20.3612 93.9969 20.0805 93.9969 19.5191C93.9969 19.2506 93.8932 19.037 93.6857 18.8783C93.4782 18.7196 93.2036 18.6403 92.8619 18.6403C92.0685 18.6403 91.501 19.0248 91.1592 19.7937L89.2552 18.6952C89.9509 17.2916 91.1409 16.5898 92.8252 16.5898C93.8749 16.5898 94.7048 16.8584 95.3151 17.3954C95.9376 17.9202 96.2488 18.561 96.2488 19.3177C96.2488 20.2087 95.9131 20.8799 95.2419 21.3315ZM105.919 24.8649C104.979 25.7925 103.832 26.2563 102.477 26.2563C101.122 26.2563 99.9749 25.7925 99.0351 24.8649C98.1075 23.9251 97.6437 22.7778 97.6437 21.4231C97.6437 20.0683 98.1075 18.9271 99.0351 17.9995C99.9749 17.0597 101.122 16.5898 102.477 16.5898C103.832 16.5898 104.979 17.0597 105.919 17.9995C106.859 18.9271 107.329 20.0683 107.329 21.4231C107.329 22.7778 106.859 23.9251 105.919 24.8649ZM100.701 23.2355C101.177 23.7115 101.769 23.9495 102.477 23.9495C103.185 23.9495 103.777 23.7115 104.253 23.2355C104.729 22.7595 104.967 22.1554 104.967 21.4231C104.967 20.6908 104.729 20.0866 104.253 19.6106C103.777 19.1346 103.185 18.8966 102.477 18.8966C101.769 18.8966 101.177 19.1346 100.701 19.6106C100.237 20.0866 100.005 20.6908 100.005 21.4231C100.005 22.1554 100.237 22.7595 100.701 23.2355ZM114.317 16.5898C115.55 16.5898 116.6 17.0597 117.466 17.9995C118.345 18.9271 118.785 20.0683 118.785 21.4231C118.785 22.7778 118.345 23.9251 117.466 24.8649C116.6 25.7925 115.55 26.2563 114.317 26.2563C113.036 26.2563 112.047 25.8108 111.352 24.9198V29.6615H108.99V16.8462H111.352V17.9263C112.047 17.0353 113.036 16.5898 114.317 16.5898ZM112.066 23.2905C112.542 23.7665 113.146 24.0045 113.878 24.0045C114.61 24.0045 115.215 23.7665 115.691 23.2905C116.179 22.8023 116.423 22.1798 116.423 21.4231C116.423 20.6664 116.179 20.05 115.691 19.574C115.215 19.0858 114.61 18.8417 113.878 18.8417C113.146 18.8417 112.542 19.0858 112.066 19.574C111.59 20.05 111.352 20.6664 111.352 21.4231C111.352 22.1798 111.59 22.8023 112.066 23.2905Z" fill="white"/>
<ellipse cx="39.5333" cy="20" rx="9.88338" ry="20" fill="white"/>
<ellipse cx="26.2293" cy="20.0003" rx="6.46221" ry="14.0741" fill="white"/>
<ellipse cx="17.1057" cy="20.0002" rx="4.18143" ry="8.88889" fill="white"/>
<ellipse cx="9.12307" cy="19.6298" rx="3.04104" ry="6.2963" fill="white"/>
<ellipse cx="2.28078" cy="20.0001" rx="2.28078" ry="4.44444" fill="white"/>
<path d="M44.4459 14.1109V26.9263H41.9195V22.4775H40.4731L37.5256 26.9263H34.6879L37.8185 22.2029C37.0008 21.91 36.3356 21.4096 35.823 20.7017C35.3104 19.9938 35.0541 19.2126 35.0541 18.3583C35.0541 17.1866 35.469 16.1858 36.299 15.3558C37.1289 14.5259 38.1359 14.1109 39.3198 14.1109H44.4459ZM39.3198 20.2623H41.9195V16.4726H39.3198C38.8438 16.4726 38.4349 16.6557 38.0931 17.0218C37.7514 17.388 37.5805 17.8334 37.5805 18.3583C37.5805 18.8831 37.7514 19.3347 38.0931 19.713C38.4349 20.0792 38.8438 20.2623 39.3198 20.2623Z" fill="#00214A"/>
</svg>
