<svg width="101" height="81" viewBox="0 0 101 81" fill="none" xmlns="http://www.w3.org/2000/svg">
<path d="M44.2852 34.3902C49.7857 36.2169 52.5359 37.1303 53.1252 39.3297C53.7146 41.5292 51.7895 43.6953 47.9393 48.0275L26.7044 71.9212C22.1126 77.0879 19.8166 79.6713 17.3607 79.0901C14.9048 78.5089 14.0102 75.1705 12.2212 68.4937L3.11933 34.5251C1.33028 27.8483 0.435759 24.5099 2.27206 22.7785C4.10836 21.0472 7.38838 22.1366 13.9484 24.3152L44.2852 34.3902Z" fill="#FE9900"/>
<path d="M84.2007 23.5606C89.7012 25.3873 92.4514 26.3007 93.0408 28.5002C93.6301 30.6996 91.705 32.8657 87.8549 37.1979L66.6199 61.0916C62.0281 66.2583 59.7322 68.8417 57.2762 68.2605C54.8203 67.6793 53.9258 64.3409 52.1367 57.6641L43.0349 23.6955C41.2458 17.0187 40.3513 13.6803 42.1876 11.949C44.0239 10.2177 47.3039 11.307 53.8639 13.4856L84.2007 23.5606Z" fill="#FE9900"/>
</svg>
