<svg width="359" height="105" viewBox="0 0 359 105" fill="none" xmlns="http://www.w3.org/2000/svg">
<rect width="359" height="105" fill="#0047FF"/>
<path d="M359 70C359 61.1634 351.837 54 343 54H163.853C155.014 54 146.891 49.1419 142.709 41.355L125.027 8.42998C122.239 3.23876 116.824 0 110.931 0H16C7.16344 0 0 7.16344 0 16V105H359V70Z" fill="#F9F9F9"/>
<path d="M109.571 35C109.571 45.8154 100.943 54.5714 90.3125 54.5714C79.6824 54.5714 71.0536 45.8154 71.0536 35C71.0536 24.1846 79.6824 15.4286 90.3125 15.4286C100.943 15.4286 109.571 24.1846 109.571 35Z" stroke="#9FA0AB" stroke-width="0.857143"/>
<path d="M90.5696 25.8569V34.9998M90.5696 44.1426V34.9998M90.5696 34.9998H81.3125M90.5696 34.9998H99.3125" stroke="#00214A"/>
<path d="M58.9464 35C58.9464 45.8154 50.3176 54.5714 39.6875 54.5714C29.0574 54.5714 20.4286 45.8154 20.4286 35C20.4286 24.1846 29.0574 15.4286 39.6875 15.4286C50.3176 15.4286 58.9464 24.1846 58.9464 35Z" stroke="#9FA0AB" stroke-width="0.857143"/>
<path d="M39.9446 25.8569V34.9998M39.9446 44.1426V34.9998M39.9446 34.9998H30.6875M39.9446 34.9998H48.6875" stroke="#00214A"/>
</svg>
