<svg width="1870" height="334" viewBox="0 0 1870 334" fill="none" xmlns="http://www.w3.org/2000/svg">
<rect y="65" width="1870" height="269" fill="#0047FF"/>
<path d="M1657.33 334H1835C1854.33 334 1870 318.33 1870 299V0H0V190C0 209.33 15.67 225 35 225H1536.91C1555.39 225 1572.63 234.273 1582.81 249.686L1628.12 318.291C1634.6 328.099 1645.57 334 1657.33 334Z" fill="#00214A"/>
<circle cx="1794" cy="267" r="34.25" stroke="#9FA0AB" stroke-width="1.5"/>
<path d="M1794.46 251V267M1794.46 283V267M1794.46 267H1778M1794.46 267H1810" stroke="white" stroke-width="1.5"/>
<circle cx="1704" cy="267" r="34.25" stroke="#9FA0AB" stroke-width="1.5"/>
<path d="M1704.46 251V267M1704.46 283V267M1704.46 267H1688M1704.46 267H1720" stroke="white" stroke-width="1.5"/>
</svg>
