<svg width="61" height="64" viewBox="0 0 61 64" fill="none" xmlns="http://www.w3.org/2000/svg">
<path d="M24.1665 6.02075C24.1665 4.12228 25.7055 2.58325 27.604 2.58325H39.0623C40.9608 2.58325 42.4998 4.12227 42.4998 6.02075V24.3541C42.4998 26.2526 40.9608 27.7916 39.0623 27.7916H24.1665V6.02075Z" fill="#FDB325" stroke="#FDB325" stroke-width="3.4375"/>
<path opacity="0.3" d="M40.2085 7.16675H56.3332C58.2061 7.16675 59.2882 9.29159 58.1865 10.8063L53.6274 17.0751C52.4586 18.6823 52.4586 20.8596 53.6274 22.4667L58.1865 28.7355C59.2882 30.2502 58.2061 32.3751 56.3332 32.3751H42.5002C41.2345 32.3751 40.2085 31.3491 40.2085 30.0834V7.16675Z" fill="#FDB325" stroke="#FDB325" stroke-width="3.4375"/>
<path d="M24 49L24 7" stroke="#FDB325" stroke-width="3" stroke-linecap="round" stroke-linejoin="round"/>
<path opacity="0.8" d="M47.25 49C47.25 52.7902 44.7899 56.3351 40.5731 58.9706C36.3668 61.5995 30.5093 63.25 24 63.25C17.4907 63.25 11.6332 61.5995 7.42694 58.9706C3.21015 56.3351 0.75 52.7902 0.75 49C0.75 45.2098 3.21015 41.6649 7.42694 39.0294C11.6332 36.4005 17.4907 34.75 24 34.75C30.5093 34.75 36.3668 36.4005 40.5731 39.0294C44.7899 41.6649 47.25 45.2098 47.25 49Z" stroke="#FDB325" stroke-width="1.5"/>
<path d="M36.5 49C36.5 50.8019 35.3618 52.6407 33.0884 54.1022C30.831 55.5534 27.6219 56.5 24 56.5C20.3781 56.5 17.169 55.5534 14.9116 54.1022C12.6382 52.6407 11.5 50.8019 11.5 49C11.5 47.1981 12.6382 45.3593 14.9116 43.8978C17.169 42.4466 20.3781 41.5 24 41.5C27.6219 41.5 30.831 42.4466 33.0884 43.8978C35.3618 45.3593 36.5 47.1981 36.5 49Z" stroke="#FDB325" stroke-width="3"/>
</svg>
