<svg width="156" height="54" viewBox="0 0 156 54" fill="none" xmlns="http://www.w3.org/2000/svg">
<path d="M81.112 18.2H84.4V35H81.112V28.04H74.872V35H71.56V18.2H74.872V24.872H81.112V18.2ZM96.4969 23H99.5929V35H96.4969V33.584C95.5689 34.752 94.2649 35.336 92.5849 35.336C90.9849 35.336 89.6089 34.728 88.4569 33.512C87.3209 32.28 86.7529 30.776 86.7529 29C86.7529 27.224 87.3209 25.728 88.4569 24.512C89.6089 23.28 90.9849 22.664 92.5849 22.664C94.2649 22.664 95.5689 23.248 96.4969 24.416V23ZM90.7849 31.448C91.4089 32.072 92.2009 32.384 93.1609 32.384C94.1209 32.384 94.9129 32.072 95.5369 31.448C96.1769 30.808 96.4969 29.992 96.4969 29C96.4969 28.008 96.1769 27.2 95.5369 26.576C94.9129 25.936 94.1209 25.616 93.1609 25.616C92.2009 25.616 91.4089 25.936 90.7849 26.576C90.1609 27.2 89.8489 28.008 89.8489 29C89.8489 29.992 90.1609 30.808 90.7849 31.448ZM113.2 32.096H114.784V38.216H111.76V35H104.32V38.216H101.296V32.096H102.76C103.448 31.072 103.792 29.656 103.792 27.848V23H113.2V32.096ZM106.072 32.096H110.176V25.784H106.816V27.848C106.816 29.544 106.568 30.96 106.072 32.096ZM123.518 28.88C124.734 29.472 125.342 30.424 125.342 31.736C125.342 32.76 124.918 33.616 124.07 34.304C123.222 34.992 122.03 35.336 120.494 35.336C118.062 35.336 116.406 34.376 115.526 32.456L118.046 30.968C118.43 32.056 119.254 32.6 120.518 32.6C121.094 32.6 121.534 32.488 121.838 32.264C122.158 32.04 122.318 31.736 122.318 31.352C122.318 30.616 121.846 30.248 120.902 30.248H119.198V27.608H120.494C121.422 27.608 121.886 27.24 121.886 26.504C121.886 26.152 121.75 25.872 121.478 25.664C121.206 25.456 120.846 25.352 120.398 25.352C119.358 25.352 118.614 25.856 118.166 26.864L115.67 25.424C116.582 23.584 118.142 22.664 120.35 22.664C121.726 22.664 122.814 23.016 123.614 23.72C124.43 24.408 124.838 25.248 124.838 26.24C124.838 27.408 124.398 28.288 123.518 28.88ZM137.515 33.512C136.283 34.728 134.779 35.336 133.003 35.336C131.227 35.336 129.723 34.728 128.491 33.512C127.275 32.28 126.667 30.776 126.667 29C126.667 27.224 127.275 25.728 128.491 24.512C129.723 23.28 131.227 22.664 133.003 22.664C134.779 22.664 136.283 23.28 137.515 24.512C138.747 25.728 139.363 27.224 139.363 29C139.363 30.776 138.747 32.28 137.515 33.512ZM130.675 31.376C131.299 32 132.075 32.312 133.003 32.312C133.931 32.312 134.707 32 135.331 31.376C135.955 30.752 136.267 29.96 136.267 29C136.267 28.04 135.955 27.248 135.331 26.624C134.707 26 133.931 25.688 133.003 25.688C132.075 25.688 131.299 26 130.675 26.624C130.067 27.248 129.763 28.04 129.763 29C129.763 29.96 130.067 30.752 130.675 31.376ZM148.525 22.664C150.141 22.664 151.517 23.28 152.653 24.512C153.805 25.728 154.381 27.224 154.381 29C154.381 30.776 153.805 32.28 152.653 33.512C151.517 34.728 150.141 35.336 148.525 35.336C146.845 35.336 145.549 34.752 144.637 33.584V39.8H141.541V23H144.637V24.416C145.549 23.248 146.845 22.664 148.525 22.664ZM145.573 31.448C146.197 32.072 146.989 32.384 147.949 32.384C148.909 32.384 149.701 32.072 150.325 31.448C150.965 30.808 151.285 29.992 151.285 29C151.285 28.008 150.965 27.2 150.325 26.576C149.701 25.936 148.909 25.616 147.949 25.616C146.989 25.616 146.197 25.936 145.573 26.576C144.949 27.2 144.637 28.008 144.637 29C144.637 29.992 144.949 30.808 145.573 31.448Z" fill="white"/>
<ellipse cx="52" cy="27" rx="13" ry="27" fill="#0047FF"/>
<ellipse cx="34.5" cy="27" rx="8.5" ry="19" fill="#0047FF"/>
<ellipse cx="22.5" cy="27" rx="5.5" ry="12" fill="#0047FF"/>
<ellipse cx="12" cy="26.5" rx="4" ry="8.5" fill="#0047FF"/>
<ellipse cx="3" cy="27" rx="3" ry="6" fill="#0047FF"/>
<path d="M58.416 18.2V35H55.104V29.168H53.208L49.344 35H45.624L49.728 28.808C48.656 28.424 47.784 27.768 47.112 26.84C46.44 25.912 46.104 24.888 46.104 23.768C46.104 22.232 46.648 20.92 47.736 19.832C48.824 18.744 50.144 18.2 51.696 18.2H58.416ZM51.696 26.264H55.104V21.296H51.696C51.072 21.296 50.536 21.536 50.088 22.016C49.64 22.496 49.416 23.08 49.416 23.768C49.416 24.456 49.64 25.048 50.088 25.544C50.536 26.024 51.072 26.264 51.696 26.264Z" fill="white"/>
</svg>
