<svg width="65" height="54" viewBox="0 0 65 54" fill="none" xmlns="http://www.w3.org/2000/svg">
<ellipse cx="52" cy="27" rx="13" ry="27" fill="#0047FF"/>
<ellipse cx="34.5" cy="27" rx="8.5" ry="19" fill="#0047FF"/>
<ellipse cx="22.5" cy="27" rx="5.5" ry="12" fill="#0047FF"/>
<ellipse cx="12" cy="26.5" rx="4" ry="8.5" fill="#0047FF"/>
<ellipse cx="3" cy="27" rx="3" ry="6" fill="#0047FF"/>
<path d="M58.416 18.2V35H55.104V29.168H53.208L49.344 35H45.624L49.728 28.808C48.656 28.424 47.784 27.768 47.112 26.84C46.44 25.912 46.104 24.888 46.104 23.768C46.104 22.232 46.648 20.92 47.736 19.832C48.824 18.744 50.144 18.2 51.696 18.2H58.416ZM51.696 26.264H55.104V21.296H51.696C51.072 21.296 50.536 21.536 50.088 22.016C49.64 22.496 49.416 23.08 49.416 23.768C49.416 24.456 49.64 25.048 50.088 25.544C50.536 26.024 51.072 26.264 51.696 26.264Z" fill="white"/>
</svg>
